<svg xmlns="http://www.w3.org/2000/svg"  viewBox="0 0 64 64" width="64px" height="64px"><path fill="#ffeb9b" d="M33.5 10A25.5 25.5 0 1 0 33.5 61A25.5 25.5 0 1 0 33.5 10Z"/><path fill="#b0edcc" d="M11.5,24C25.583,24,37,35.417,37,49.5c0,4.131-0.986,8.03-2.731,11.481 C34.013,60.988,33.758,61,33.5,61C19.417,61,8,49.583,8,35.5c0-4.126,0.986-8.019,2.725-11.467C10.984,24.026,11.239,24,11.5,24z"/><path fill="#fbd" d="M11.977,22.559c0.752-1.273,1.597-2.456,2.522-3.547c7.886-9.299,21.552-11.847,32.404-5.434 c2.184,1.291,4.103,2.857,5.741,4.629c1.026,1.109,1.942,2.299,2.744,3.551c-0.125,0.227-0.233,0.459-0.365,0.684 c-7.165,12.125-22.802,16.146-34.926,8.981c-3.557-2.102-6.412-4.934-8.494-8.192C11.726,23.006,11.846,22.781,11.977,22.559"/><path fill="#7bbeeb" d="M50,46c0-7-6.582-9-11-9c-0.315,0-2.868-0.59-3.5-0.583C27.833,36.5,34.667,45.5,26,44c-5-3-7-7-7-7 c-2-4-7.556-4.817-5,2c3,8,11,15,18,16C40.167,56.167,50,53.563,50,46z"/><path fill="#8d6c9f" d="M33.5,62C18.888,62,7,50.112,7,35.5S18.888,9,33.5,9S60,20.888,60,35.5S48.112,62,33.5,62z M33.5,11 C19.991,11,9,21.991,9,35.5C9,49.01,19.991,60,33.5,60C47.01,60,58,49.01,58,35.5C58,21.991,47.01,11,33.5,11z"/><path fill="#8d6c9f" d="M26 34.5A1.5 2 0 1 0 26 38.5A1.5 2 0 1 0 26 34.5Z" transform="rotate(-60 26 36.501)"/><path fill="#fff8ee" d="M5,3c7,9,18.953,22.861,33,36c1-1,3-3,3-3C28,22,15,10,6,2L5,3z"/><path fill="#8d6c9f" d="M38,40c-0.245,0-0.49-0.09-0.683-0.27C20.238,23.756,7.659,8.048,4.21,3.614 c-0.31-0.398-0.274-0.964,0.083-1.321l1-1C5.667,0.917,6.27,0.901,6.665,1.252c13.053,11.603,24.852,23.065,35.068,34.067 c0.366,0.395,0.355,1.008-0.025,1.388l-3,3C38.512,39.902,38.256,40,38,40z M7.862,5.005c5.024,6.255,15.97,19.281,30.116,32.602 l1.633-1.632C30.257,25.951,19.591,15.546,7.862,5.005z"/><path fill="#ced9ed" d="M27.863,29.057C31.08,32.358,34.474,35.702,38,39c1-1,3-3,3-3 c-3.301-3.555-6.601-6.979-9.837-10.243L27.863,29.057z"/><path fill="#8d6c9f" d="M38 40c-.245 0-.49-.09-.683-.27-3.364-3.146-6.786-6.502-10.17-9.976-.382-.392-.378-1.018.009-1.405l3.3-3.3c.188-.188.419-.295.709-.293.266 0 .521.107.708.296 3.429 3.46 6.746 6.914 9.858 10.267.366.395.355 1.008-.025 1.388l-3 3C38.512 39.902 38.256 40 38 40zM29.27 29.065c2.901 2.959 5.824 5.827 8.708 8.542l1.633-1.632c-2.69-2.884-5.527-5.837-8.451-8.801L29.27 29.065zM17.147 45.126c-.327 0-.647-.16-.839-.455-.826-1.269-1.51-2.628-2.033-4.038-.192-.518.072-1.093.59-1.285.515-.194 1.093.071 1.285.59.472 1.271 1.089 2.498 1.834 3.644.301.463.17 1.082-.293 1.383C17.523 45.074 17.334 45.126 17.147 45.126zM32.286 18.04c-.523 0-.963-.406-.997-.936l-.129-1.996c-.036-.551.382-1.027.934-1.063.566-.034 1.027.383 1.062.934l.129 1.996c.036.551-.382 1.027-.933 1.063C32.329 18.04 32.307 18.04 32.286 18.04zM37.397 18.419c-.069 0-.14-.007-.211-.022-.539-.116-.884-.647-.768-1.188l.419-1.956c.115-.54.644-.885 1.188-.769.539.116.884.647.768 1.188l-.419 1.956C38.273 18.098 37.858 18.419 37.397 18.419zM42.202 20.178c-.159 0-.32-.038-.471-.118-.487-.261-.671-.867-.41-1.354l.943-1.764c.261-.487.866-.67 1.354-.41.487.261.671.867.41 1.354l-.943 1.764C42.904 19.986 42.56 20.178 42.202 20.178zM46.342 23.195c-.25 0-.501-.093-.694-.281-.397-.384-.408-1.017-.025-1.414l1.39-1.439c.384-.397 1.019-.408 1.414-.024.397.384.408 1.017.025 1.414l-1.39 1.439C46.865 23.093 46.604 23.195 46.342 23.195z"/><g><path fill="#8d6c9f" d="M45,48c0,0,0-3-2-4s-4.167-1.042-5-5c2-2,3-3,3-3s4,2,5,5S46.25,47.5,45,48z"/><path fill="#8d6c9f" d="M45,49c-0.197,0-0.393-0.059-0.561-0.172c-0.274-0.186-0.438-0.494-0.439-0.825 c-0.001-0.046-0.062-2.415-1.447-3.108c-0.35-0.175-0.706-0.317-1.058-0.46c-1.729-0.698-3.687-1.489-4.474-5.229 c-0.069-0.331,0.032-0.674,0.271-0.913l3-3c0.306-0.307,0.769-0.38,1.154-0.188c0.179,0.089,4.383,2.224,5.501,5.578 c1.131,3.391,0.35,7.475-1.577,8.245C45.252,48.977,45.126,49,45,49z M46,48h0.01H46z M39.102,39.313 c0.6,2.24,1.683,2.678,3.143,3.268c0.4,0.162,0.805,0.326,1.203,0.525c0.955,0.478,1.553,1.272,1.927,2.085 c0.167-1.058,0.153-2.447-0.322-3.874c-0.597-1.789-2.636-3.325-3.878-4.076L39.102,39.313z"/></g><g><path fill="#8d6c9f" d="M28.044,45.198c-1.19,0-2.515-0.334-3.811-0.995c-3.429-1.747-7.101-7.668-8.107-10.352 c-0.194-0.518,0.068-1.094,0.585-1.288c0.518-0.191,1.093,0.068,1.288,0.585c0.92,2.455,4.332,7.841,7.143,9.273 c1.91,0.972,3.558,0.922,4.345,0.439C29.832,42.649,30,42.367,30,42c0-3.108,2.061-5.232,5.804-5.98 c0.549-0.113,1.069,0.243,1.177,0.784c0.108,0.542-0.243,1.068-0.784,1.177C33.412,38.537,32,39.89,32,42 c0,1.059-0.535,1.994-1.469,2.566C29.841,44.989,28.985,45.198,28.044,45.198z"/></g><g><path fill="#8d6c9f" d="M35.657,55.819c-6.53,0-12.007-2.578-16.694-7.868c-0.366-0.413-0.328-1.045,0.085-1.411 c0.413-0.367,1.045-0.327,1.412,0.085c2.813,3.176,7.469,7.351,15.768,7.188c4.642,0.089,8.197-1.025,10.407-3.197 C48.77,48.518,49,46.12,49,45.188c0-0.553,0.447-1,1-1s1,0.447,1,1c0,2.505-1.08,5.003-2.964,6.854 c-1.813,1.782-5.295,3.883-11.804,3.771C36.04,55.816,35.848,55.819,35.657,55.819z"/></g></svg>